<?xml version="1.0" encoding="UTF-8"?>
<!DOCTYPE svg PUBLIC "-//W3C//DTD SVG 1.1//EN" "http://www.w3.org/Graphics/SVG/1.1/DTD/svg11.dtd">
<svg xmlns="http://www.w3.org/2000/svg" xml:space="preserve" width="548.096px" height="500.876px" version="1.1" style="shape-rendering:geometricPrecision; text-rendering:geometricPrecision; image-rendering:optimizeQuality; fill-rule:evenodd; clip-rule:evenodd"
viewBox="0 0 548.096 500.876"
 xmlns:xlink="http://www.w3.org/1999/xlink">
 <defs>
  <style type="text/css">
   <![CDATA[.fil1 {fill:#FFFFFF; opacity: 0.8;}]]>
  </style>
 </defs>
 <g id="layer1">
  <metadata id="arcostasi-layer"/>
	<path class="fil1" d="M185.488,278.793c-0.325-0.408-0.254-0.698,0.212-0.868c0.233-0.085,0.475-0.084,0.727,0
		c0.249,0.086,0.521,0.162,0.81,0.232c3.807,1.518,6.668,3.336,8.583,5.453c0.891,0.996,0.146,2.455-2.233,4.376
		c-0.715,0.701-2.188,1.304-4.423,1.808c-2.236,0.507-5.269,1.06-9.095,1.661c0.756,4.739,1.525,8.902,2.303,12.489
		c0.778,3.589,1.648,6.703,2.609,9.344c0.99,2.72,2.052,4.795,3.19,6.229c0.028,0.078,0.205,0.146,0.535,0.201
		c0.328,0.057,0.675,0.106,1.043,0.147c0.367,0.044,0.696,0.1,0.985,0.169c0.29,0.072,0.449,0.146,0.477,0.223
		c0.268,1.223-0.296,2.087-1.693,2.596c-0.545,0.198-0.913,0.155-1.102-0.126c-2.177-2.11-4.438-6.39-6.785-12.838
		c-0.876-2.407-1.74-5.084-2.592-8.03c-0.853-2.943-1.707-6.194-2.562-9.756c-4.506,0.673-9.273,1.353-14.302,2.038
		c-5.027,0.688-10.372,1.356-16.028,2.007c-2.286,5.319-4.978,10.676-8.073,16.068c-3.096,5.395-6.629,10.97-10.605,16.726
		c-11.203,15.867-21.711,25.672-31.518,29.419c-4.867,1.857-9.148,1.877-12.846,0.057c-3.698-1.821-6.438-5.179-8.219-10.072
		c-0.764-2.098-1.336-4.396-1.719-6.897c-0.382-2.5-0.482-5.188-0.299-8.072c0.264-10.389,4.313-18.24,12.145-23.554
		c1.616-1.116,3.457-2.159,5.523-3.132c2.065-0.971,4.419-1.938,7.061-2.899c11.807-4.298,27.598-7.802,47.373-10.513
		c2.78-6.377,6.443-15.892,10.988-28.545c2.478-6.971,4.632-13.252,6.467-18.848c1.835-5.594,3.242-10.549,4.224-14.865
		c0.246-0.528,0.681-0.907,1.302-1.133c1.321-0.481,2.996-0.474,5.021,0.02c2.028,0.495,3.063,1.041,3.105,1.641
		c0.213,6.873,0.408,12.85,0.588,17.93c0.178,5.082,0.327,9.362,0.449,12.835c0.766,12.742,1.616,21.845,2.55,27.311
		c4.386-0.276,7.821-0.866,10.308-1.771c2.485-0.904,3.502-1.979,3.05-3.222c-0.679-1.864-2.708-3.456-6.093-4.776
		C186.166,279.691,185.687,279.338,185.488,278.793z M77.828,321.079c-1.712,3.396-2.619,7.486-2.724,12.274
		c-0.063,4.423,0.628,8.613,2.069,12.574c1.584,4.352,3.851,7.44,6.805,9.269c1.702,1.052,3.511,1.67,5.424,1.852
		c1.915,0.185,3.982-0.173,6.209-1.071c9.936-3.881,20.073-13.245,30.417-28.094c6.332-9.431,12.127-19.854,17.386-31.269
		c-16.428,1.757-31.515,5.137-45.265,10.142c-2.72,0.99-5.132,1.979-7.235,2.963c-2.104,0.986-3.94,1.985-5.508,2.994
		C82.066,314.898,79.54,317.685,77.828,321.079z M162.096,291.926c4.784-0.509,9.508-1.129,14.17-1.858
		c-2.489-9.738-4.13-26.691-4.921-50.86c-0.128-0.832-0.233-1.367-0.318-1.6c-0.452-1.242-1.028-1.737-1.728-1.482
		c-0.389,0.142-0.663,0.352-0.825,0.63c-0.162,0.28-0.368,0.685-0.614,1.214c-3.048,9.996-6.253,19.562-9.611,28.701
		c-3.359,9.141-6.923,17.96-10.692,26.457C152.465,292.838,157.311,292.437,162.096,291.926z"/>
	<path class="fil1" d="M194.137,322.491c-0.296-0.334-0.399-0.735-0.307-1.208c3.292-14.395,5.153-25.232,5.583-32.515
		c0.042-1.335-0.078-2.39-0.361-3.167c-0.057-0.155-0.328-0.54-0.816-1.154c-0.19-0.282-0.289-0.555-0.297-0.816
		c0.82-0.649,3.14-3.341,6.959-8.075c0.021-0.182,0.147-0.317,0.38-0.401c0.467-0.17,0.848-0.088,1.145,0.243
		c0.48,0.353,0.598,0.795,0.351,1.324c-1.243,4.323-2.276,8.065-3.106,11.225c-0.828,3.161-1.359,5.753-1.592,7.771
		c-0.063,0.551-0.038,0.983,0.074,1.293c0.143,0.39,0.582,0.272,1.324-0.351c0.587-0.564,0.939-1.046,1.06-1.441
		c1.7-4.753,4.252-9.947,7.654-15.586c3.501-5.847,6.439-9.865,8.812-12.048c2.379-0.953,4.251-1.37,5.614-1.252
		c0.104,0.051,0.173,0.114,0.201,0.19c0.085,0.233,0.068,0.614-0.047,1.139c-0.118,0.527-0.286,1.028-0.508,1.505
		c-0.223,0.477-0.493,0.885-0.812,1.219c-0.318,0.336-0.62,0.469-0.91,0.397c-1.81-0.134-3.779,0.979-5.91,3.339
		c-9.179,10.556-15.588,24.853-19.227,42.891c0.084,0.232-0.127,0.619-0.636,1.155c-0.537,0.459-1.13,1.006-1.778,1.637
		c-0.648,0.632-1.366,1.441-2.15,2.433C194.618,322.843,194.385,322.928,194.137,322.491z"/>
	<path class="fil1" d="M251.674,259.784c-1.545,2.278-3.747,4.333-6.598,6.162c1.305-1.97,2.656-4.177,4.056-6.622
		c1.397-2.442,2.322-4.494,2.773-6.155c0.323-1.524,0.354-2.769,0.094-3.729c-0.262-0.96-0.717-1.607-1.367-1.943
		c-0.649-0.335-1.415-0.32-2.294,0.043c-0.879,0.365-1.787,1.069-2.727,2.113c-2.281,2.678-4.39,5.887-6.327,9.627
		c-1.938,3.74-3.69,7.568-5.257,11.48l-0.72,2.373c-0.911,3.06-1.703,6.559-2.381,10.5c-0.676,3.941-0.493,7.833,0.555,11.674
		c0.544,1.738,1.228,3.073,2.052,4.004c0.822,0.935,1.708,1.556,2.659,1.869c0.95,0.314,1.945,0.394,2.988,0.232
		c1.04-0.159,2.052-0.46,3.034-0.906c2.451-1.243,4.935-2.938,7.451-5.087c2.518-2.148,4.637-4.238,6.36-6.274
		c0.479-0.614,0.904-0.834,1.276-0.662c0.371,0.174,0.316,0.567-0.164,1.181c-0.629,0.935-1.391,1.98-2.287,3.143
		c-0.896,1.163-1.917,2.347-3.061,3.555c-1.145,1.208-2.35,2.372-3.612,3.492c-1.265,1.12-2.593,2.065-3.982,2.835
		c-1.079,0.656-2.393,0.979-3.935,0.971c-1.544-0.01-3.094-0.281-4.651-0.814c-1.559-0.531-2.98-1.356-4.266-2.473
		c-1.286-1.115-2.173-2.464-2.659-4.047c-0.863-2.852-1.293-5.906-1.29-9.163c0.003-3.255,0.325-6.539,0.967-9.853
		c0.642-3.312,1.546-6.567,2.714-9.764c1.166-3.196,2.479-6.181,3.933-8.952c1.453-2.772,3.021-5.234,4.702-7.387
		c1.68-2.148,3.34-3.874,4.977-5.176c1.307-1.003,2.711-1.558,4.211-1.664c1.501-0.105,2.83,0.157,3.983,0.793
		c1.155,0.635,1.987,1.651,2.497,3.05c0.509,1.398,0.409,3.063-0.295,4.99C254.356,255.311,253.221,257.505,251.674,259.784z
		 M244.959,265.989l-0.042-0.117c0.076-0.027,0.103-0.08,0.074-0.158C245.02,265.792,245.008,265.884,244.959,265.989z"/>
	<path class="fil1" d="M263.807,297.463c-0.694,0.033-1.363-0.055-2.008-0.258c-0.648-0.206-1.244-0.518-1.791-0.933s-0.934-0.935-1.16-1.558
		c-2.192-6.502-0.451-17.913,5.223-34.229c0.113-0.656-0.092-0.978-0.615-0.965c-0.839-0.133-1.7-0.324-2.584-0.576
		c-0.883-0.249-1.41-0.608-1.58-1.075c-0.084-0.232-0.08-0.585,0.011-1.059c0.093-0.474,1.017-1.073,2.775-1.802
		c2.845-1.123,4.308-1.7,4.385-1.729c0.311-0.112,0.682-0.423,1.112-0.933c1.114-2.253,2.514-3.729,4.194-4.43
		c1.214-0.528,3.216-0.466,6.007,0.188c0.184,0.022,0.349,0.052,0.492,0.085c0.146,0.036,0.309,0.065,0.494,0.085
		c1.813-0.571,3.998-1.278,6.551-2.121c2.553-0.84,5.475-1.815,8.767-2.926c1.222-0.269,1.86-0.325,1.917-0.171
		c0.169,0.467-0.328,0.911-1.493,1.336c-2.409,0.876-3.792,1.907-4.152,3.095c-0.071,0.29,0.013,0.522,0.255,0.699
		c0.161,0.205,0.323,0.409,0.487,0.613c0.161,0.205,0.272,0.386,0.329,0.54c0.842,3.038,0.729,6.663-0.331,10.875
		c-1.063,4.214-3.202,9.149-6.421,14.808c-6.233,11.155-12.586,18.479-19.053,21.979
		C265.101,297.277,264.497,297.43,263.807,297.463z M261.973,294.238c0.679,1.864,2.174,2.111,4.492,0.74
		c4.971-2.777,9.915-8.887,14.836-18.332c5.251-9.74,7.43-17.658,6.53-23.754c-0.306-2.528-2.274-3.35-5.913-2.467
		c-1.948,0.445-3.703,1.063-5.265,1.851c-1.56,0.788-2.94,1.709-4.142,2.761c-0.184-0.02-0.715,0.569-1.598,1.77
		c-5.515,10.717-8.573,22.254-9.176,34.613C261.584,292.445,261.662,293.384,261.973,294.238z"/>
	<path class="fil1" d="M326.805,249.395c5.225-4.013,10.566-7.584,16.025-10.715l0.159,0.074c-5.042,3.068-10,6.786-14.876,11.154
		c-4.876,4.37-9.77,9.474-14.685,15.307c1.49,0.956,2.612,1.801,3.364,2.537c0.752,0.738,1.229,1.38,1.426,1.923
		c0.793,2.176-0.979,5.284-5.315,9.324c-3.646,3.524-6.824,5.782-9.543,6.772c-0.932,0.339-1.79,0.519-2.574,0.54
		c-1.032,0.552-1.851,1.023-2.452,1.421c-0.604,0.396-1.129,0.586-1.573,0.572c-1.036,0.289-1.453-0.131-1.251-1.261
		c0.727-2.11,4.515-8.02,11.363-17.727l-5.553-3.653c-1.252-0.775-2.273-1.591-3.067-2.446c-0.796-0.853-1.468-1.796-2.02-2.828
		c-2.517-4.977,0.632-12.766,9.443-23.362c4.378-5.375,8.741-9.757,13.095-13.146c4.354-3.387,8.719-5.833,13.099-7.341
		c0.466-0.169,0.977-0.092,1.535,0.232c0.564,0.587,0.749,1.093,0.552,1.516c-0.262,0.975-0.853,2.07-1.773,3.284
		c-0.922,1.216-1.683,1.846-2.283,1.887c-2.014,0.029-3.684,0.153-5.011,0.372c-1.328,0.22-2.419,0.484-3.272,0.795
		c-0.467,0.17-0.907,0.354-1.318,0.546c-0.414,0.196-0.801,0.403-1.16,0.621c-4.031,2.699-8.212,7.167-12.539,13.404
		c-5.543,7.737-7.35,13.409-5.42,17.016c0.799,1.471,2.373,3.141,4.727,5.01c2.479,1.737,4.322,2.694,5.531,2.87
		C316.457,258.308,321.579,253.409,326.805,249.395z M301.962,284.829c1.511-0.198,3.725-1.487,6.642-3.868
		c1.326-1.188,2.43-2.204,3.31-3.053c0.879-0.848,1.398-1.65,1.562-2.416c0.168-0.499,0.17-0.984,0-1.45
		c-0.452-1.242-1.869-2.355-4.25-3.337c-0.96,1.231-2.383,3.243-4.267,6.04c-1.159,1.655-2.062,3.039-2.712,4.154
		c-0.649,1.114-1.057,2.055-1.217,2.818C300.66,284.643,300.973,285.012,301.962,284.829z"/>
	<path class="fil1" d="M349.319,329.745c-2.918-1.491-5.165-3.553-6.739-6.19c-1.576-2.639-2.973-5.628-4.188-8.966
		c-3.986-10.954-5.231-28.271-3.734-51.953c0.683-10.452,1.69-20.013,3.022-28.679s2.933-16.593,4.802-23.784
		c0.565-1.349,0.607-2.684,0.127-4.006c-0.509-1.397-1.604-2.229-3.285-2.499c-3.192-0.069-4.719-0.876-4.578-2.424
		c0.063-0.552,1.082-1.318,3.057-2.301c1.973-0.981,4.824-2.152,8.554-3.51c0.31-0.112,0.307-0.243-0.011-0.391
		c-0.317-0.148-0.443-0.367-0.371-0.657c1.607-7.184,3.806-14.559,6.594-22.127c2.787-7.567,5.73-15.435,8.828-23.602
		c0.269-0.712,2.075-2.514,5.423-5.404c1.638-1.299,2.801-2.273,3.489-2.92s1.499-1.139,2.432-1.478
		c0.854-0.312,1.408-0.118,1.663,0.581c0.113,0.312-0.178,0.725-0.868,1.24c-6.766,4.134-14.365,20.844-22.794,50.127
		c-0.593,2.24,0.003,3.033,1.79,2.383l16.896-6.149c4.582-1.668,8.143-2.941,10.683-3.822c2.538-0.878,4.117-1.433,4.74-1.659
		c0.699-0.255,1.208-0.308,1.525-0.159c0.057,0.156-0.01,0.643-0.195,1.456c-0.188,0.816-0.615,1.392-1.286,1.723
		c-4.371,1.768-9.35,3.864-14.931,6.291c-5.582,2.428-11.955,5.166-19.114,8.212c-1.237,0.713-1.981,1.689-2.234,2.924
		c-1.914,7.558-3.605,14.992-5.079,22.302c-1.476,7.313-2.687,15.098-3.638,23.361c-1.316,13.061-1.883,24.679-1.695,34.86
		c0.186,10.18,1.283,18.996,3.292,26.446c0.289,1.038,0.59,1.983,0.901,2.84c0.34,0.932,0.678,1.863,1.018,2.796
		c4.92,13.517,12.157,18.536,21.712,15.059c2.718-0.989,5.564-2.598,8.537-4.823c4.328-3.336,8.292-7.549,11.894-12.642
		c3.6-5.094,6.91-11.226,9.932-18.394c3.176-7.227,5.295-13.672,6.355-19.337c1.061-5.663,1.139-10.706,0.234-15.129
		c-2.657-7.302-6.435-9.579-11.327-6.829c-1.108,0.579-1.991,1.296-2.647,2.151c-0.658,0.854-1.18,1.353-1.568,1.494
		c-0.777,0.283-1.215,0.047-1.313-0.71c0.16-0.763,0.525-1.511,1.096-2.245c0.567-0.734,1.704-1.897,3.415-3.486
		c0.281-0.191,0.733-0.399,1.355-0.626c2.485-0.904,5.462-0.098,8.933,2.423c3.602,2.647,5.65,4.892,6.146,6.736
		c2.178,10.819-1.183,24.666-10.083,41.542c-4.554,8.52-9.198,15.399-13.931,20.643c-4.735,5.239-9.705,8.81-14.908,10.704
		C361.029,333.4,355.055,332.935,349.319,329.745z"/>
	<path class="fil1" d="M351.493,262.842c-1.943,0.707-3.407-0.298-4.397-3.018c-2.008-5.516-0.27-14.153,5.215-25.915
		c2.52-5.403,5.083-9.965,7.688-13.684c2.605-3.72,5.195-6.752,7.773-9.098c0.614-0.488,1.294-0.977,2.039-1.468
		c0.745-0.49,1.543-0.892,2.398-1.204c0.933-0.339,1.9-0.579,2.902-0.726c1.004-0.145,2.027-0.231,3.073-0.261
		c1.376-0.324,2.128-0.555,2.256-0.689c1.313-0.742,2.139-1.613,2.479-2.617c0.098-0.211,0.303-0.374,0.614-0.487
		c0.31-0.113,0.652-0.018,1.027,0.285c0.375,0.305,0.551,0.549,0.53,0.731c-0.981,4.315-1.963,8.565-2.947,12.75
		c-0.983,4.185-1.888,8.407-2.714,12.666c-0.641,3.313-1.096,7.021-1.363,11.119c-0.267,4.102-0.384,8.189-0.352,12.269
		c0.034,4.078,0.178,7.919,0.434,11.521c0.255,3.602,0.635,6.585,1.146,8.951c0.063,0.416,0.152,0.78,0.266,1.091
		c0.141,0.389,0.281,0.775,0.424,1.166c0.961,2.64,2.49,4.305,4.588,4.994c2.099,0.688,4.546,0.522,7.342-0.496
		c2.797-1.018,5.384-2.487,7.764-4.409c3.608-2.896,7.752-8.188,12.434-15.873c2.251-3.723,4.145-7.403,5.681-11.041
		c1.533-3.639,2.796-7,3.784-10.086c0.416-1.032,0.741-1.59,0.975-1.675c0.104,0.049,0.187,0.15,0.244,0.308
		c0.112,0.31,0.11,0.794,0,1.451c-0.828,3.29-1.966,6.872-3.413,10.743c-1.451,3.87-3.388,7.917-5.808,12.143
		c-2.302,3.827-4.443,7.071-6.423,9.728c-1.982,2.655-3.918,4.769-5.81,6.337c-0.947,0.784-1.928,1.471-2.943,2.061
		c-1.02,0.59-2.148,1.112-3.39,1.564c-1.865,0.679-3.681,1.009-5.445,0.991c-1.767-0.016-3.427-0.227-4.979-0.629
		c-1.788-0.317-3.262-1.166-4.424-2.546c-1.162-1.381-2.073-3.095-2.73-5.143c-0.516-1.658-0.977-3.955-1.383-6.886
		c-0.408-2.932-0.703-6.101-0.888-9.508c-0.185-3.406-0.286-6.823-0.3-10.25c-0.017-3.425,0.096-6.501,0.336-9.227
		c0.303-3.277,0.656-6.353,1.062-9.229c0.406-2.873,0.9-5.561,1.487-8.063c0.231-1.051,0.037-1.465-0.584-1.239
		c-0.078,0.028-0.166,0.149-0.265,0.36c-1.044,2.933-2.415,6.114-4.112,9.546c-1.698,3.436-3.719,7.249-6.063,11.444
		c-4.744,8.237-9.038,14.684-12.887,19.337C353.051,261.925,352.269,262.56,351.493,262.842z M352.603,253.202
		c0.679,1.864,1.717,2.542,3.115,2.032c0.542-0.197,1.055-0.602,1.536-1.219c3.359-4.301,6.605-9.64,9.741-16.016
		c3.134-6.373,6.256-13.866,9.37-22.478c0.147-0.318,0.166-0.632,0.053-0.943c-0.312-0.854-1.107-1.465-2.385-1.837
		c-1.279-0.37-2.695-0.272-4.248,0.293c-0.856,0.312-1.706,0.753-2.553,1.325c-3.313,2.261-6.647,7.479-10.008,15.649
		c-1.566,3.915-2.769,7.563-3.604,10.945c-0.836,3.385-1.346,6.517-1.528,9.396C352.093,251.321,352.263,252.269,352.603,253.202z"
		/>
	<path class="fil1" d="M418.857,215.891c5.224-4.013,10.566-7.584,16.024-10.715l0.16,0.074c-5.042,3.067-10,6.786-14.877,11.154
		c-4.875,4.37-9.77,9.474-14.684,15.307c1.489,0.956,2.612,1.801,3.364,2.537c0.752,0.738,1.229,1.38,1.426,1.922
		c0.792,2.176-0.979,5.285-5.315,9.325c-3.646,3.524-6.825,5.782-9.544,6.771c-0.932,0.34-1.79,0.52-2.573,0.541
		c-1.032,0.552-1.851,1.023-2.452,1.421c-0.604,0.396-1.13,0.586-1.573,0.572c-1.037,0.289-1.453-0.131-1.251-1.261
		c0.727-2.111,4.514-8.02,11.362-17.727l-5.553-3.653c-1.251-0.775-2.272-1.591-3.067-2.446c-0.795-0.853-1.468-1.796-2.019-2.828
		c-2.517-4.977,0.632-12.766,9.443-23.362c4.378-5.375,8.74-9.757,13.095-13.146c4.354-3.387,8.719-5.833,13.098-7.341
		c0.467-0.169,0.978-0.092,1.536,0.232c0.564,0.587,0.748,1.093,0.551,1.516c-0.262,0.975-0.852,2.07-1.773,3.284
		c-0.922,1.216-1.682,1.846-2.282,1.887c-2.014,0.029-3.684,0.153-5.011,0.372c-1.328,0.22-2.419,0.484-3.273,0.795
		c-0.466,0.17-0.906,0.354-1.318,0.546c-0.413,0.196-0.8,0.403-1.159,0.621c-4.032,2.699-8.212,7.167-12.54,13.404
		c-5.543,7.737-7.348,13.409-5.419,17.016c0.799,1.471,2.373,3.141,4.726,5.01c2.48,1.737,4.322,2.694,5.531,2.87
		C408.508,224.803,413.631,219.905,418.857,215.891z M394.014,251.325c1.51-0.198,3.725-1.487,6.641-3.868
		c1.327-1.188,2.431-2.204,3.31-3.053c0.88-0.848,1.399-1.65,1.562-2.416c0.169-0.499,0.17-0.984,0-1.45
		c-0.451-1.242-1.869-2.355-4.25-3.337c-0.96,1.231-2.382,3.243-4.266,6.04c-1.16,1.655-2.063,3.039-2.713,4.154
		c-0.648,1.114-1.056,2.055-1.217,2.818C392.712,251.139,393.024,251.508,394.014,251.325z"/>
	<path class="fil1" d="M458.142,211.621c-1.366,2.17-2.905,4.469-4.616,6.894c-1.712,2.427-3.479,4.763-5.301,7.01
		c-1.82,2.246-3.446,4.068-4.871,5.468c-0.41,0.323-1.13,0.586-2.155,0.784c-1.03,0.197-2.134,0.183-3.316-0.046
		c-1.184-0.229-2.321-0.694-3.411-1.398c-1.093-0.701-1.893-1.752-2.402-3.15c-0.451-1.242-0.729-2.969-0.826-5.175
		c-0.101-2.207-0.086-4.587,0.04-7.141s0.315-5.173,0.569-7.861c0.254-2.686,0.501-5.151,0.739-7.395
		c0.24-2.242,0.422-4.155,0.55-5.742c0.127-1.584,0.171-2.547,0.137-2.887c-0.185-0.988,0.048-1.8,0.697-2.432
		c0.649-0.633,1.367-0.959,2.151-0.981c0.784-0.021,1.486,0.341,2.108,1.081c0.621,0.743,0.838,1.938,0.647,3.591
		c-0.832,5.934-1.479,10.501-1.939,13.704c-0.464,3.204-0.778,5.541-0.946,7.009c-0.171,1.47-0.263,2.361-0.281,2.675
		c-0.017,0.315-0.023,0.603-0.015,0.863c0.007,0.262-0.013,0.753-0.058,1.473c-0.047,0.722-0.182,2.223-0.406,4.502
		c-0.226,2.282-0.168,3.954,0.176,5.017c0.342,1.063,0.87,1.729,1.585,1.997c0.712,0.268,1.471,0.235,2.272-0.102
		c0.801-0.336,1.563-0.722,2.282-1.162c1.362-0.846,2.939-2.256,4.729-4.228c1.79-1.972,3.582-4.118,5.374-6.442
		c1.795-2.323,3.432-4.591,4.914-6.803c1.482-2.209,2.583-4.019,3.305-5.426c0.444-0.953,0.807-1.524,1.091-1.716
		c0.281-0.19,0.483-0.177,0.608,0.042c0.123,0.219,0.153,0.604,0.091,1.154c-0.063,0.551-0.257,1.106-0.583,1.663
		C460.488,207.733,459.508,209.454,458.142,211.621z M439.026,178.859c-1.116,2.254-2.298,3.476-3.548,3.667
		c-1.822,0.313-2.918-0.037-3.285-1.048c-0.396-1.087-0.025-2.848,1.111-5.286c1.107-2.515,2.162-4.086,3.166-4.716
		c0.797-0.465,1.686-0.502,2.664-0.111c0.979,0.392,1.479,0.979,1.5,1.763C440.883,174.535,440.346,176.445,439.026,178.859z"/>
</g>
</svg>